<?xml version="1.0" standalone="no"?>
<!DOCTYPE svg PUBLIC "-//W3C//DTD SVG 20010904//EN"
 "http://www.w3.org/TR/2001/REC-SVG-20010904/DTD/svg10.dtd">
<svg version="1.0" xmlns="http://www.w3.org/2000/svg"
 width="400.000000pt" height="400.000000pt" viewBox="0 0 400.000000 400.000000"
 preserveAspectRatio="xMidYMid meet">
<metadata>
Created by potrace 1.14, written by Peter Selinger 2001-2017
</metadata>
<g transform="translate(0.000000,400.000000) scale(0.100000,-0.100000)"
fill="#000000" stroke="none">
<path d="M1838 3765 c-1 -1 -30 -6 -63 -10 -160 -18 -358 -75 -518 -149 -97
-45 -247 -132 -259 -150 -5 -7 -8 -7 -8 -1 0 6 -3 6 -8 0 -4 -6 -38 -35 -77
-65 -67 -53 -243 -220 -231 -220 3 0 -15 -21 -39 -47 -25 -27 -45 -53 -45 -59
0 -7 -7 -14 -15 -18 -8 -3 -15 -12 -15 -21 0 -8 -4 -15 -10 -15 -5 0 -10 -7
-10 -15 0 -8 -4 -15 -10 -15 -5 0 -10 -7 -10 -15 0 -8 -5 -15 -11 -15 -5 0 -7
-4 -4 -10 3 -5 2 -10 -3 -10 -5 0 -17 -18 -27 -40 -10 -22 -22 -40 -27 -40 -5
0 -7 -4 -3 -9 3 -5 -2 -17 -11 -25 -9 -9 -17 -22 -18 -29 -1 -6 -12 -34 -24
-61 -12 -27 -22 -51 -22 -53 0 -3 -6 -19 -14 -36 -33 -72 -72 -210 -82 -292
-3 -21 -8 -44 -12 -49 -3 -6 -7 -22 -8 -36 -1 -14 -5 -70 -9 -125 -7 -96 -8
-155 -2 -237 1 -21 -2 -38 -8 -38 -6 0 -6 -3 0 -8 6 -4 12 -23 13 -42 1 -19 7
-57 12 -85 5 -27 12 -61 14 -75 2 -14 10 -47 16 -75 7 -27 13 -57 15 -65 2 -8
4 -16 5 -17 2 -2 3 -6 4 -10 1 -5 4 -12 7 -18 4 -5 9 -22 13 -37 21 -91 197
-434 228 -446 4 -2 8 -10 8 -17 0 -7 7 -16 16 -19 9 -4 14 -9 12 -12 -3 -3 7
-20 24 -37 16 -18 39 -45 51 -60 26 -35 139 -145 186 -184 19 -15 42 -36 50
-45 9 -10 19 -18 23 -18 4 0 18 -9 30 -20 13 -10 27 -19 32 -19 5 0 12 -3 15
-8 8 -13 98 -73 108 -73 4 0 19 -9 33 -20 14 -11 31 -20 38 -20 7 0 20 -7 29
-15 8 -8 19 -13 24 -10 5 4 9 2 9 -2 0 -9 87 -44 104 -42 5 0 12 -4 15 -9 13
-21 265 -86 416 -108 61 -9 346 -13 360 -5 5 2 30 6 55 7 42 1 155 22 215 38
6 1 30 8 55 15 54 15 168 56 230 84 25 11 45 18 46 16 0 -2 8 4 18 14 10 9 21
15 26 12 4 -3 13 2 20 10 7 8 18 15 26 15 7 0 19 6 26 12 7 7 25 19 40 27 15
8 37 23 48 33 11 10 20 16 20 13 0 -5 65 39 80 55 3 3 28 23 55 45 28 22 56
48 63 57 7 10 17 16 22 13 5 -3 11 4 15 15 3 11 14 20 22 20 9 0 14 2 11 6 -3
3 15 27 41 54 45 47 101 115 131 160 8 12 21 28 28 36 6 7 12 16 12 20 0 4 7
15 16 25 62 69 191 364 230 527 17 71 19 83 38 206 31 192 12 487 -45 691 -22
77 -40 133 -54 165 -2 3 -6 16 -11 30 -14 47 -127 265 -140 273 -8 4 -14 14
-14 22 0 7 -11 27 -25 43 -14 17 -25 35 -25 41 0 6 -4 11 -9 11 -4 0 -20 17
-34 38 -36 53 -112 136 -203 222 -115 108 -280 219 -434 292 -68 32 -228 93
-272 104 -10 2 -26 6 -35 8 -32 8 -167 35 -208 42 -42 6 -381 15 -387 9z"/>
</g>
</svg>
